#!OML:ASF X:\für Bonn\!DataBase\2005_08_12_Daniel\c3d\Daniel.ASF
:FULLY-SPECIFIED
:DEGREES
3746
root -4.84084 17.1733 -2.83461 321.47 -80.279 -328.667
lowerback 11.6201 -3.15842 -5.61843
upperback -1.61183 -5.25909 -2.39423
thorax -7.97393 -2.37645 1.55922
lowerneck 6.63326 2.32866 -3.15418
upperneck 4.07859 2.77818 0.587696
head 0.107668 1.29807 0.644118
rclavicle 3.34207e-014 2.38542e-015
rhumerus 6.40042 -28.987 -15.5938
rradius 5.61928
rwrist 31.7153
rhand -18.0043 4.73791
rfingers 7.12502
rthumb 8.26618 -25.0804
lclavicle 3.34207e-014 2.38542e-015
lhumerus -9.29751 -44.6291 -4.25278
lradius 25.1117
lwrist 55.114
lhand -23.1717 22.1609
lfingers 7.12502
lthumb 3.27731 52.1155
rfemur 7.44713 17.8931 15.6029
rtibia 24.3204
rfoot -41.1159 -27.0009
rtoes -9.95745
lfemur -2.77403 -23.9684 -24.2376
ltibia 32.1552
lfoot -27.4818 8.07771
ltoes -1.34217
3747
root -4.84052 17.1731 -2.835 321.424 -80.2935 -328.612
lowerback 11.5891 -3.15611 -5.61981
upperback -1.59707 -5.25227 -2.38867
thorax -7.93982 -2.37438 1.56206
lowerneck 6.62713 2.32952 -3.17087
upperneck 4.06255 2.77859 0.612717
head 0.103027 1.29837 0.654606
rclavicle 5.77718e-014 2.18663e-015
rhumerus 6.46326 -29.0356 -15.6287
rradius 5.60163
rwrist 31.7441
rhand -18.0623 4.72682
rfingers 7.12502
rthumb 8.21023 -25.0937
lclavicle 5.77718e-014 2.18663e-015
lhumerus -9.21808 -44.5874 -4.32373
lradius 25.1354
lwrist 55.1194
lhand -23.1436 22.2034
lfingers 7.12502
lthumb 3.3044 52.1576
rfemur 7.41696 17.8122 15.5637
rtibia 24.3185
rfoot -41.0262 -26.941
rtoes -9.96993
lfemur -2.78347 -23.958 -24.2311
ltibia 32.1551
lfoot -27.4838 8.08184
ltoes -1.34142
3748
root -4.83952 17.1734 -2.83566 321.378 -80.308 -328.569
lowerback 11.5897 -3.15117 -5.61339
upperback -1.59732 -5.24484 -2.38885
thorax -7.94146 -2.371 1.55712
lowerneck 6.63001 2.3241 -3.16023
upperneck 4.06852 2.77188 0.607402
head 0.104774 1.29503 0.651327
rclavicle -1.23246e-014 -1.53064e-014
rhumerus 6.48108 -29.0476 -15.632
rradius 5.60798
rwrist 31.7892
rhand -18.0779 4.73738
rfingers 7.12502
rthumb 8.19519 -25.0837
lclavicle -1.23246e-014 -1.53064e-014
lhumerus -9.12199 -44.5939 -4.40861
lradius 25.1566
lwrist 55.159
lhand -23.1305 22.2275
lfingers 7.12502
lthumb 3.31708 52.1814
rfemur 7.39994 17.7582 15.542
rtibia 24.3188
rfoot -40.9555 -26.9164
rtoes -10.0083
lfemur -2.78319 -23.9354 -24.2216
ltibia 32.1518
lfoot -27.4786 8.0744
ltoes -1.34158
3749
root -4.83892 17.1745 -2.83551 321.35 -80.3125 -328.538
lowerback 11.5727 -3.15954 -5.60684
upperback -1.58206 -5.25234 -2.38482
thorax -7.91485 -2.37599 1.55735
lowerneck 6.5796 2.33544 -3.17443
upperneck 4.09137 2.788 0.626731
head 0.119122 1.30278 0.659991
rclavicle 1.87106e-014 2.54444e-014
rhumerus 6.56053 -29.0967 -15.7006
rradius 5.61628
rwrist 31.8242
rhand -18.1038 4.67064
rfingers 7.12502
rthumb 8.17017 -25.1514
lclavicle 1.87106e-014 2.54444e-014
lhumerus -9.06253 -44.6665 -4.46388
lradius 25.1931
lwrist 55.343
lhand -23.1895 22.2338
lfingers 7.12502
lthumb 3.26011 52.1886
rfemur 7.37591 17.6595 15.4954
rtibia 24.3154
rfoot -40.8508 -26.8639
rtoes -10.0385
lfemur -2.78788 -23.9336 -24.2226
ltibia 32.1498
lfoot -27.4751 8.0857
ltoes -1.34948
3750
root -4.83819 17.1748 -2.83594 321.28 -80.3311 -328.469
lowerback 11.5674 -3.15613 -5.59606
upperback -1.58217 -5.24539 -2.38062
thorax -7.91285 -2.37303 1.55431
lowerneck 6.59772 2.3398 -3.21679
upperneck 4.07367 2.79009 0.651359
head 0.10962 1.30338 0.674353
rclavicle -5.77469e-014 -2.22639e-014
rhumerus 6.60845 -29.1082 -15.7019
rradius 5.58837
rwrist 31.8096
rhand -18.1315 4.71061
rfingers 7.12502
rthumb 8.14341 -25.1125
lclavicle -5.77469e-014 -2.22639e-014
lhumerus -8.99035 -44.6994 -4.52129
lradius 25.2184
lwrist 55.4291
lhand -23.2388 22.2468
lfingers 7.12502
lthumb 3.21247 52.2024
rfemur 7.36197 17.6413 15.4831
rtibia 24.317
rfoot -40.7889 -26.8451
rtoes -9.94037
lfemur -2.78007 -23.9733 -24.2333
ltibia 32.1431
lfoot -27.4936 8.13904
ltoes -1.34262
3751
root -4.83766 17.1752 -2.83652 321.237 -80.3435 -328.416
lowerback 11.5427 -3.15409 -5.59918
upperback -1.57611 -5.24023 -2.37504
thorax -7.89158 -2.37109 1.55914
lowerneck 6.58938 2.33995 -3.18702
upperneck 4.07881 2.79281 0.633897
head 0.113269 1.30516 0.664042
rclavicle 1.13804e-014 2.56432e-014
rhumerus 6.63716 -29.1336 -15.7209
rradius 5.60175
rwrist 31.8276
rhand -18.1476 4.69584
rfingers 7.12502
rthumb 8.12784 -25.1279
lclavicle 1.13804e-014 2.56432e-014
lhumerus -8.91785 -44.7604 -4.58304
lradius 25.2539
lwrist 55.5743
lhand -23.3038 22.21
lfingers 7.12502
lthumb 3.14969 52.1665
rfemur 7.33585 17.5858 15.4501
rtibia 24.3159
rfoot -40.7707 -26.7456
rtoes -9.8771
lfemur -2.79143 -23.9498 -24.2215
ltibia 32.1394
lfoot -27.4881 8.12992
ltoes -1.34318
3752
root -4.83707 17.1756 -2.83684 321.17 -80.3672 -328.35
lowerback 11.5276 -3.155 -5.60951
upperback -1.56713 -5.23887 -2.35234
thorax -7.8701 -2.37012 1.58718
lowerneck 6.58581 2.34955 -3.23182
upperneck 4.06989 2.80274 0.647703
head 0.109992 1.30964 0.675576
rclavicle -1.13556e-014 -1.98785e-015
rhumerus 6.72322 -29.1553 -15.7422
rradius 5.5969
rwrist 31.8759
rhand -18.1557 4.68642
rfingers 7.12502
rthumb 8.1201 -25.1376
lclavicle -1.13556e-014 -1.98785e-015
lhumerus -8.88647 -44.6883 -4.5839
lradius 25.2747
lwrist 55.5888
lhand -23.3656 22.2501
lfingers 7.12502
lthumb 3.09007 52.2075
rfemur 7.30967 17.5095 15.417
rtibia 24.3207
rfoot -40.6624 -26.7032
rtoes -9.92551
lfemur -2.78471 -23.9405 -24.2175
ltibia 32.1331
lfoot -27.4932 8.14327
ltoes -1.34152
3753
root -4.83572 17.1752 -2.83727 321.118 -80.3788 -328.298
lowerback 11.5275 -3.15048 -5.60131
upperback -1.56638 -5.23195 -2.35544
thorax -7.8707 -2.36722 1.5782
lowerneck 6.57782 2.35084 -3.22608
upperneck 4.08243 2.8049 0.662413
head 0.114929 1.3106 0.679281
rclavicle 3.77939e-014 -2.78299e-015
rhumerus 6.75749 -29.1808 -15.7694
rradius 5.57491
rwrist 31.8735
rhand -18.1931 4.67085
rfingers 7.12502
rthumb 8.08399 -25.1545
lclavicle 3.77939e-014 -2.78299e-015
lhumerus -8.80631 -44.7584 -4.64802
lradius 25.3039
lwrist 55.7096
lhand -23.4531 22.1866
lfingers 7.12502
lthumb 3.00557 52.1452
rfemur 7.27907 17.4283 15.3772
rtibia 24.3249
rfoot -40.55 -26.6634
rtoes -9.88106
lfemur -2.78677 -23.9192 -24.2118
ltibia 32.1282
lfoot -27.4857 8.13748
ltoes -1.34181
3754
root -4.83515 17.1754 -2.83781 321.068 -80.3918 -328.25
lowerback 11.5172 -3.14811 -5.60481
upperback -1.56571 -5.22775 -2.34866
thorax -7.86333 -2.36509 1.58584
lowerneck 6.61153 2.35831 -3.21366
upperneck 4.05458 2.81456 0.65148
head 0.101104 1.31591 0.673126
rclavicle 3.58558e-014 1.68967e-014
rhumerus 6.79284 -29.1892 -15.7753
rradius 5.57945
rwrist 31.8885
rhand -18.1817 4.66758
rfingers 7.12502
rthumb 8.09497 -25.1574
lclavicle 3.58558e-014 1.68967e-014
lhumerus -8.7332 -44.7686 -4.69467
lradius 25.3361
lwrist 55.7677
lhand -23.4957 22.2259
lfingers 7.12502
lthumb 2.96439 52.1851
rfemur 7.25601 17.351 15.3451
rtibia 24.3331
rfoot -40.463 -26.6166
rtoes -9.88613
lfemur -2.78241 -23.8999 -24.2058
ltibia 32.1203
lfoot -27.4811 8.13335
ltoes -1.34188
3755
root -4.83412 17.1761 -2.83748 321.044 -80.3983 -328.22
lowerback 11.4902 -3.15671 -5.59633
upperback -1.5501 -5.23439 -2.34378
thorax -7.83077 -2.36995 1.58504
lowerneck 6.57662 2.36614 -3.22284
upperneck 4.0655 2.8259 0.656958
head 0.109681 1.32148 0.676548
rclavicle -1.08835e-014 -2.32578e-014
rhumerus 6.86804 -29.2286 -15.8173
rradius 5.56656
rwrist 31.9107
rhand -18.2002 4.68653
rfingers 7.12502
rthumb 8.07712 -25.1391
lclavicle -1.08835e-014 -2.32578e-014
lhumerus -8.69526 -44.7346 -4.71664
lradius 25.3523
lwrist 55.8063
lhand -23.5695 22.1708
lfingers 7.12502
lthumb 2.89309 52.1309
rfemur 7.22212 17.2555 15.3003
rtibia 24.3399
rfoot -40.3631 -26.5627
rtoes -9.91539
lfemur -2.78721 -23.941 -24.2139
ltibia 32.1129
lfoot -27.4896 8.1783
ltoes -1.32107
3756
root -4.83323 17.1764 -2.83775 320.962 -80.4145 -328.135
lowerback 11.4838 -3.15057 -5.59142
upperback -1.55145 -5.22522 -2.34498
thorax -7.82963 -2.36579 1.57915
lowerneck 6.59365 2.36679 -3.21984
upperneck 4.04472 2.82644 0.662666
head 0.100464 1.32207 0.677511
rclavicle -8.87077e-015 1.74931e-014
rhumerus 6.87708 -29.2407 -15.8289
rradius 5.56964
rwrist 31.9268
rhand -18.2221 4.67398
rfingers 7.12502
rthumb 8.056 -25.1525
lclavicle -8.87077e-015 1.74931e-014
lhumerus -8.6213 -44.8005 -4.76899
lradius 25.3824
lwrist 55.8959
lhand -23.6735 22.1689
lfingers 7.12502
lthumb 2.79264 52.1303
rfemur 7.18698 17.196 15.2638
rtibia 24.3511
rfoot -40.2735 -26.5364
rtoes -9.96156
lfemur -2.77997 -23.9553 -24.2164
ltibia 32.1
lfoot -27.5066 8.18013
ltoes -1.33563
3757
root -4.83183 17.1766 -2.83856 320.944 -80.4243 -328.123
lowerback 11.4767 -3.16028 -5.60486
upperback -1.54092 -5.23718 -2.32809
thorax -7.81061 -2.37128 1.60549
lowerneck 6.58173 2.38071 -3.21599
upperneck 4.04968 2.84585 0.648741
head 0.103878 1.33182 0.672319
rclavicle 1.55549e-014 1.51076e-014
rhumerus 6.96984 -29.2633 -15.8751
rradius 5.56132
rwrist 31.9165
rhand -18.2298 4.68976
rfingers 7.12502
rthumb 8.04855 -25.137
lclavicle 1.55549e-014 1.51076e-014
lhumerus -8.61033 -44.8426 -4.77761
lradius 25.4146
lwrist 55.9936
lhand -23.7675 22.2122
lfingers 7.12502
lthumb 2.70193 52.1749
rfemur 7.17304 17.146 15.2445
rtibia 24.3581
rfoot -40.2401 -26.4638
rtoes -9.83833
lfemur -2.77703 -23.9308 -24.2033
ltibia 32.0921
lfoot -27.4933 8.16616
ltoes -1.33422
3758
root -4.83118 17.1772 -2.839 320.878 -80.4422 -328.047
lowerback 11.4451 -3.15762 -5.59573
upperback -1.53369 -5.22993 -2.33336
thorax -7.78641 -2.36936 1.59129
lowerneck 6.60378 2.38001 -3.19484
upperneck 4.00691 2.84603 0.648879
head 0.0874812 1.33289 0.668365
rclavicle 4.72362e-014 1.98785e-016
rhumerus 6.98704 -29.2897 -15.9052
rradius 5.5692
rwrist 31.9349
rhand -18.2173 4.66598
rfingers 7.12502
rthumb 8.06064 -25.1603
lclavicle 4.72362e-014 1.98785e-016
lhumerus -8.5354 -44.8371 -4.81572
lradius 25.4126
lwrist 55.9863
lhand -23.8423 22.2298
lfingers 7.12502
lthumb 2.62966 52.1933
rfemur 7.12958 17.0749 15.2052
rtibia 24.3665
rfoot -40.1391 -26.4327
rtoes -9.87995
lfemur -2.77779 -23.952 -24.2059
ltibia 32.0826
lfoot -27.5069 8.20221
ltoes -1.3291
3759
root -4.83014 17.1769 -2.83937 320.824 -80.4555 -327.99
lowerback 11.4237 -3.16126 -5.6077
upperback -1.52432 -5.23235 -2.31451
thorax -7.76095 -2.37046 1.61634
lowerneck 6.55081 2.39241 -3.23567
upperneck 4.04627 2.86165 0.660191
head 0.107046 1.33971 0.679137
rclavicle -3.36443e-014 -1.82882e-014
rhumerus 7.06885 -29.3127 -15.9276
rradius 5.55495
rwrist 31.9531
rhand -18.2183 4.66611
rfingers 7.12502
rthumb 8.05965 -25.1602
lclavicle -3.36443e-014 -1.82882e-014
lhumerus -8.5333 -44.7802 -4.79235
lradius 25.4294
lwrist 55.9879
lhand -23.9504 22.2299
lfingers 7.12502
lthumb 2.52522 52.1947
rfemur 7.09936 16.9928 15.1666
rtibia 24.3728
rfoot -40.0523 -26.3694
rtoes -9.89235
lfemur -2.78151 -23.9393 -24.2012
ltibia 32.0772
lfoot -27.5031 8.20543
ltoes -1.32852
3760
root -4.82914 17.1774 -2.83993 320.779 -80.4695 -327.941
lowerback 11.3976 -3.16 -5.59771
upperback -1.50804 -5.22677 -2.32016
thorax -7.7301 -2.36976 1.60161
lowerneck 6.55951 2.39277 -3.21478
upperneck 4.00935 2.86382 0.659237
head 0.094594 1.34177 0.675017
rclavicle 2.44754e-014 2.76311e-014
rhumerus 7.0948 -29.3574 -15.9705
rradius 5.56399
rwrist 31.9473
rhand -18.2277 4.6507
rfingers 7.12502
rthumb 8.05061 -25.176
lclavicle 2.44754e-014 2.76311e-014
lhumerus -8.45772 -44.9015 -4.8543
lradius 25.4475
lwrist 56.1053
lhand -24.0269 22.2363
lfingers 7.12502
lthumb 2.45136 52.202
rfemur 7.06682 16.9107 15.1309
rtibia 24.382
rfoot -39.9595 -26.3196
rtoes -9.90571
lfemur -2.78537 -23.9168 -24.1904
ltibia 32.0677
lfoot -27.4944 8.19962
ltoes -1.32873
